<?xml version="1.0" standalone="no"?>
<!DOCTYPE svg PUBLIC "-//W3C//DTD SVG 1.1//EN" "http://www.w3.org/Graphics/SVG/1.1/DTD/svg11.dtd" >
<!--
2013-9-30: Created.
-->
<svg>
<metadata>
Created by iconfont
</metadata>
<defs>

<font id="iconfont" horiz-adv-x="1024" >
  <font-face
    font-family="iconfont"
    font-weight="500"
    font-stretch="normal"
    units-per-em="1024"
    ascent="896"
    descent="-128"
  />
    <missing-glyph />
    
    <glyph glyph-name="lock" unicode="&#58938;" d="M512 896a512 512 0 1 0 0-1024A512 512 0 0 0 512 896z m0-149.333333l-13.653333-0.426667A200.533333 200.533333 0 0 1 311.808 559.7866670000001L311.466667 546.133333l-0.085334-119.466666H298.666667a42.666667 42.666667 0 0 1-41.984-34.986667L256 384v-256a42.666667 42.666667 0 0 1 34.986667-41.984l7.68-0.682667h426.666666a42.666667 42.666667 0 0 1 41.984 34.986667L768 128V384a42.666667 42.666667 0 0 1-34.986667 41.984L725.333333 426.666667h-12.8V546.133333l-0.426666 13.653334A200.533333 200.533333 0 0 1 525.653333 746.325333L512 746.666667z m0-128l9.130667-0.597334a72.533333 72.533333 0 0 0 62.805333-62.805333l0.597333-9.130667-0.085333-119.466666h-145.066667l0.085334 119.466666 0.597333 9.130667a72.533333 72.533333 0 0 0 62.805333 62.805333L512 618.666667z"  horiz-adv-x="1024" />

    
    <glyph glyph-name="overdue" unicode="&#58939;" d="M512 896a512 512 0 1 0 0-1024A512 512 0 0 0 512 896z m0-170.666667h-42.666667a42.666667 42.666667 0 0 1-42.666666-42.666666V298.66666699999996a42.666667 42.666667 0 0 1 42.666666-42.666667h341.333334A42.666667 42.666667 0 0 1 853.333333 298.66666699999996v42.666666a42.666667 42.666667 0 0 1-42.666666 42.666667h-256V682.666667A42.666667 42.666667 0 0 1 512 725.333333z"  horiz-adv-x="1024" />

    
    <glyph glyph-name="edit" unicode="&#58941;" d="M554.666667 896a42.666667 42.666667 0 0 0 0-85.333333H170.666667a85.333333 85.333333 0 0 1-84.736-75.349334L85.333333 725.333333v-682.666666a85.333333 85.333333 0 0 1 75.349334-84.736L170.666667-42.66666699999996h682.666666a85.333333 85.333333 0 0 1 84.736 75.349334L938.666667 42.66666699999996V426.666667a42.666667 42.666667 0 1 0 85.333333 0V42.66666699999996a170.666667 170.666667 0 0 0-170.666667-170.666667H170.666667a170.666667 170.666667 0 0 0-170.666667 170.666667V725.333333a170.666667 170.666667 0 0 0 170.666667 170.666667h384z m414.208-55.125333a42.666667 42.666667 0 0 0 4.864-54.442667l-4.864-5.973333-597.333334-597.333334a42.666667 42.666667 0 0 0-65.28 54.442667l4.864 5.973333 597.333334 597.333334a42.666667 42.666667 0 0 0 60.416 0z"  horiz-adv-x="1024" />

    
    <glyph glyph-name="remarks" unicode="&#58949;" d="M832 896a128 128 0 0 0 128-128v-739.456a128 128 0 0 0-191.488-111.104l-224.768 128.384a64 64 0 0 1-63.488 0L255.488-82.55999999999995A128 128 0 0 0 64 28.543999999999983V768a128 128 0 0 0 128 128h640zM576 448H192v-64h384V448z m128 192H192v-64h512V640z"  horiz-adv-x="1024" />

    
    <glyph glyph-name="edit-pen" unicode="&#58950;" d="M858.348951 604.7596980000001l-125.625091 125.433101a57.148857 57.148857 0 0 0 0 80.827555L800.944108 879.3045979999999a57.212853 57.212853 0 0 0 80.827555 0l125.433101-125.433101a57.148857 57.148857 0 0 0 0-80.827554l-68.156252-68.156252a56.828874 56.828874 0 0 0-80.699561 0z m-73.851938-153.719545c21.502817 21.438821 26.878522 50.813205 12.031338 65.532396L643.832749 669.3961429999999c-14.71919 14.71919-44.157571 9.407483-65.596392-11.967342l-559.329237-544.290064a63.932484 63.932484 0 0 1-18.878962-38.269895l0.255986-152.887591c-2.751849-28.798416 19.838909-51.389174 48.637325-48.637325l152.951588-1.27993a63.612501 63.612501 0 0 1 38.269895 18.878962l544.354061 560.161191z m180.214088-432.232227H565.757043a57.148857 57.148857 0 0 1-40.701761-16.895071c-19.518926-19.646919-51.773152-52.925089-78.587678-80.763558a28.414437 28.414437 0 0 1 20.478874-48.125353h497.44464c31.99824 0 58.236797 26.17456 58.236797 58.1728v30.078346a58.044808 58.044808 0 0 1-57.916814 57.596832z"  horiz-adv-x="1024" />

    
    <glyph glyph-name="deal" unicode="&#58951;" d="M448 896c52.352 0 98.816-25.152 128-64h192a128 128 0 0 0 128-128v-256l-362.624-362.624a128 128 0 0 1-30.912-50.048L448-128H128a128 128 0 0 0-128 128V704a128 128 0 0 0 128 128h192c29.184 38.848 75.648 64 128 64z m470.656-534.656l82.688-82.688a32 32 0 0 0 0-45.312L704-64l-131.264-43.776a32 32 0 0 0-40.512 40.512L576 64l297.344 297.344a32 32 0 0 0 45.312 0zM448 320H128v-64h320V320z m128 192H128v-64h448V512zM448 800a64 64 0 1 1 0-128 64 64 0 0 1 0 128z"  horiz-adv-x="1024" />

    
    <glyph glyph-name="send" unicode="&#58952;" d="M1008.100277 889.662254a35.583021 35.583021 0 0 0 15.359578-36.478997l-146.235979-877.735862a36.031009 36.031009 0 0 0-36.031009-30.271167 39.038926 39.038926 0 0 0-13.695623 2.815922L568.688361 53.78124100000002l-138.300197-168.571364a33.599076 33.599076 0 0 0-27.967231-13.183638 31.103145 31.103145 0 0 0-12.607653 2.303937 35.64702 35.64702 0 0 0-17.407521 13.43963 35.64702 35.64702 0 0 0-6.591819 20.863427v199.418516l493.746422 605.103359-610.863201-528.561464L23.039366 277.19909700000005c-14.079613 5.311854-21.759402 15.807565-22.847371 31.359138a33.919067 33.919067 0 0 0 18.303496 33.727072L969.253346 890.878221A35.199032 35.199032 0 0 0 987.492844 895.99808a35.199032 35.199032 0 0 0 20.607433-6.335826z"  horiz-adv-x="1024" />

    
    <glyph glyph-name="urging" unicode="&#58953;" d="M511.936-126.07552799999996a98.23957 98.23957 0 0 0-73.791677 30.975864 69.503696 69.503696 0 0 0-12.287946 15.103934 36.60784 36.60784 0 0 0 8.383963 50.623779 37.055838 37.055838 0 0 0 18.751918 4.607979h115.199496a35.839843 35.839843 0 0 0 35.647844-36.159841 37.951834 37.951834 0 0 0-5.183977-19.071917 100.60756 100.60756 0 0 0-86.719621-47.99979v1.919992z m309.310647 574.845485v-245.310927c0-9.599958 3.711984-18.815918 10.367955-25.599888l83.455635-84.223632a37.247837 37.247837 0 0 0 0-51.263775 34.687848 34.687848 0 0 0-25.21589-11.199951h-755.196696a36.47984 36.47984 0 0 0-36.287841 36.799839 39.103829 39.103829 0 0 0 10.367954 25.663887l85.439626 84.159632a36.47984 36.47984 0 0 1 10.303955 25.663888V448.769957a372.47837 372.47837 0 0 0 64.767717 213.759064A275.710794 275.710794 0 0 0 409.600448 772.928538a37.439836 37.439836 0 0 1 25.21589 34.815848v9.21596a76.927663 76.927663 0 0 0 21.759904 56.383753c14.591936 14.975934 34.559849 23.103899 55.295759 22.527902 20.927908 0.703997 41.15182-7.679966 55.679756-23.0399 14.143938-14.975934 22.015904-35.007847 21.951904-55.871755v-9.21596c0-15.743931 9.919957-29.75987 24.575892-34.815848a275.518795 275.518795 0 0 0 145.663363-110.527516c41.983816-62.911725 63.487722-137.663398 61.439731-213.759065z m99.007567 59.199741a425.534138 425.534138 0 0 1-148.159352 280.126774 36.351841 36.351841 0 0 0-3.903983 51.327776l23.295898 23.679896a35.839843 35.839843 0 0 0 48.511788 0 528.637687 528.637687 0 0 0 183.807196-348.606475 37.375836 37.375836 0 0 0-31.679862-40.767822h-36.927838a35.199846 35.199846 0 0 0-34.943847 32.255859v1.919992zM253.057133 787.456475a412.286196 412.286196 0 0 1-148.863349-279.486777 36.47984 36.47984 0 0 0-35.583844-32.255859H36.226082A36.47984 36.47984 0 0 0 0.00224 511.873681V516.4816599999999A524.605705 524.605705 0 0 0 184.449433 865.024136a35.199846 35.199846 0 0 0 48.511788 0l22.015903-21.695906a36.351841 36.351841 0 0 0 3.839984-52.607769l-5.759975-3.263986z"  horiz-adv-x="1024" />

    
    <glyph glyph-name="launch" unicode="&#58954;" d="M540.406527 890.871306c14.399253-5.887695 26.238639-16.319153 33.726251-29.50247l444.584937-895.889525a67.196514 67.196514 0 0 0-37.438058-88.187426c-16.319153-6.719651-34.558207-6.975638-50.813364-0.95995L575.988682 64.03419799999995l-64.956631 178.166758L447.995321 64.03419799999995l-345.838059-179.318698a69.628388 69.628388 0 0 0-93.69114 26.366633 66.044574 66.044574 0 0 0-3.071841 58.492965L450.107212 854.329202c14.719236 34.430214 55.165138 50.749367 90.299315 36.478107z"  horiz-adv-x="1024" />

    
    <glyph glyph-name="comment" unicode="&#58955;" d="M921.6 832H102.4C46.08 832 0 785.92 0 729.6v-735.936a64 64 0 0 1 100.288-52.736L204.8 12.799999999999955h716.8c56.32 0 102.4 46.08 102.4 102.4V729.6c0 56.32-46.08 102.4-102.4 102.4zM320 448a64 64 0 1 0-128 0 64 64 0 0 0 128 0z m256 0a64 64 0 1 0-128 0 64 64 0 0 0 128 0z m256 0a64 64 0 1 0-128 0 64 64 0 0 0 128 0z"  horiz-adv-x="1024" />

    
    <glyph glyph-name="protect" unicode="&#58956;" d="M896 896a64 64 0 0 0 64-64v-559.552a256 256 0 0 0-131.2-223.552l-285.568-159.488a64 64 0 0 0-62.464 0L195.2 48.89599999999996A256 256 0 0 0 64 272.448V832a64 64 0 0 0 64 64h768zM512 384a421.888 421.888 0 0 1-222.144-61.888l-6.208-4.48a57.792 57.792 0 0 1 2.88-91.648l188.16-135.168a64 64 0 0 1 74.624 0l188.352 135.296a57.6 57.6 0 0 1-3.264 95.808l-16.064 9.472A423.744 423.744 0 0 1 512 384z m0 384a160 160 0 1 1 0-320 160 160 0 0 1 0 320z"  horiz-adv-x="1024" />

    
    <glyph glyph-name="complete" unicode="&#58957;" d="M512 896a512 512 0 1 0 0-1024A512 512 0 0 0 512 896z m289.28-204.8C587.52 558.2719999999999 520.32 391.04 450.56 306.88L280.32 442.496l-75.52-61.44L499.264 76.79999999999995c50.944 131.648 123.776 389.248 319.936 572.288l-17.92 42.112z"  horiz-adv-x="1024" />

    
    <glyph glyph-name="verify" unicode="&#58958;" d="M896 640a128 128 0 0 0 128-128v-512a128 128 0 0 0-128-128H128a128 128 0 0 0-128 128V512a128 128 0 0 0 128 128h768z m-86.656-169.344L448 109.24800000000005 278.656 278.65599999999995l-45.312-45.312L448 18.751999999999953l406.656 406.592-45.312 45.312zM864 768a32 32 0 1 0 0-64h-704a32 32 0 0 0 0 64h704z m-128 128a32 32 0 1 0 0-64h-448a32 32 0 0 0 0 64h448z"  horiz-adv-x="1024" />

    
    <glyph glyph-name="all" unicode="&#58959;" d="M82.172919 207.47541999999999l7.039736-2.559904 347.122982-148.794421a191.9928 191.9928 0 0 1 139.066785-4.735822l12.223542 4.735822 347.122983 148.794421a63.9976 63.9976 0 0 0 57.149857-114.299714l-6.719748-3.327875-347.122983-148.794421a319.988 319.988 0 0 0-235.895154-6.39976l-16.191393 6.39976-347.18698 148.794421a63.9976 63.9976 0 0 0 43.390373 120.187493z m0 255.9904l7.039736-2.559904 347.122982-148.79442a191.9928 191.9928 0 0 1 139.066785-4.735823l12.223542 4.735823 347.122983 148.79442a63.9976 63.9976 0 0 0 57.149857-114.299714l-6.719748-3.327875-347.122983-148.79442a319.988 319.988 0 0 0-235.895154-6.39976l-16.191393 6.39976L38.782546 343.278327a63.9976 63.9976 0 0 0 43.390373 120.187493z m351.858805 415.984401a191.9928 191.9928 0 0 0 155.962151 0l405.87278-180.473233a44.79832 44.79832 0 0 0 0-81.85293L589.993875 436.714823a191.9928 191.9928 0 0 0-155.962151 0L28.158944 617.1880550000001a44.79832 44.79832 0 0 0 0 81.852931z"  horiz-adv-x="1024" />

    
    <glyph glyph-name="review" unicode="&#58960;" d="M741.504 896a64 64 0 0 0 45.248-18.752l218.496-218.496a64 64 0 0 0 18.752-45.248V128a64 64 0 0 0-64-64h-128v-123.072c0-38.08-31.232-68.928-69.76-68.928H133.76C95.296-128 64-97.15200000000004 64-59.072V699.072C64 737.152 95.232 768 133.76 768L256 768.064V832a64 64 0 0 0 64 64h421.504zM256 640.064L192 640v-576a64 64 0 0 1 64-64h448v64H320a64 64 0 0 0-64 64V640.064zM896 448l-63.936-0.256L832 320H512v50.752a32 32 0 0 1-54.656 22.592L374.656 310.65599999999995a32 32 0 0 1 22.592-54.656H832a64 64 0 0 1 64 64V448z m-96 274.752a32 32 0 0 1-32-32V640H448l-7.488-0.448A64 64 0 0 1 384 576v-128h64V576h434.752a32 32 0 0 1 22.592 54.656l-82.688 82.688a32 32 0 0 1-22.656 9.408z"  horiz-adv-x="1024" />

    
    <glyph glyph-name="push" unicode="&#58961;" d="M896 896a128 128 0 0 0 128-128v-768a128 128 0 0 0-128-128H128a128 128 0 0 0-128 128V768a128 128 0 0 0 128 128h768z m-160-320a32 32 0 0 1-32-32V384H320v-64h544a32 32 0 0 1 32 32v21.312a32 32 0 0 1-6.4 19.2l-128 170.688a32 32 0 0 1-25.6 12.8zM256 384H128v-64h128V384z"  horiz-adv-x="1024" />

    
    <glyph glyph-name="assign" unicode="&#58962;" d="M576.768 352c195.2 0 359.04-144.832 403.84-340.224l1.28-6.528A88.064 88.064 0 0 0 894.72-96H259.008a88.448 88.448 0 0 0-86.08 108.16l3.904 15.68C226.752 215.03999999999996 386.88 352 576.768 352zM240 594.3679999999999a32 32 0 0 0 21.056-7.872l132.16-115.328c14.464-12.672 22.784-30.976 22.784-50.176a30.272 30.272 0 0 0-30.272-30.272H208v1.28c-57.856-18.624-100.032-67.328-103.68-125.44l-0.32-8.32v-300.416c0-26.112-23.296-47.232-52.032-47.232-26.624 0-48.64 18.24-51.648 41.728L0-42.176000000000045V258.17600000000004c0 114.368 89.344 209.792 208 231.68V562.3679999999999a32 32 0 0 0 32 32zM576.768 832a192 192 0 1 0 0-384 192 192 0 0 0 0 384z"  horiz-adv-x="1024" />

    
    <glyph glyph-name="delete" unicode="&#58963;" d="M834.10048 554.688v-512A170.688 170.688 0 0 0 663.41248-128H364.78848A170.688 170.688 0 0 0 194.10048 42.68799999999999v512h640zM471.41248 469.312H386.10048v-426.624h85.312V469.312z m170.688 0H556.78848v-426.624H642.10048V469.312zM644.59648 896c36.736 0 69.312-23.488 80.96-58.368l37.44-112.32h220.416a42.688 42.688 0 1 0 0-85.312H44.78848a42.688 42.688 0 1 0 0 85.312H265.14048L302.64448 837.632A85.312 85.312 0 0 0 383.60448 896h260.992z"  horiz-adv-x="1027" />

    
    <glyph glyph-name="check" unicode="&#58964;" d="M448.00192 704a224 224 0 0 0 129.408-406.848l-1.536-8a137.984 137.984 0 0 1 15.744-94.208l13.824-24.256h220.672c37.824 0 68.544-30.592 68.8-68.48L896.00192-58.624000000000024A68.864 68.864 0 0 0 827.58592-128H69.88992a68.864 68.864 0 0 0-68.8 68.48L0.00192 101.31200000000001a68.864 68.864 0 0 0 68.416 69.376h219.84l14.272 24.96c16.256 28.544 21.76 61.888 15.616 94.08l-1.664 8.96A224 224 0 0 0 448.00192 704z m256-640H192.00192v-64h512v64z m160 832a32 32 0 0 0 32-32V768h96a32 32 0 0 0 32-32v-64a32 32 0 0 0-32-32H896.00192v-96a32 32 0 0 0-32-32h-64a32 32 0 0 0-32 32V640h-96a32 32 0 0 0-32 32v64a32 32 0 0 0 32 32H768.00192V864a32 32 0 0 0 32 32h64z"  horiz-adv-x="1024" />

    
    <glyph glyph-name="packup" unicode="&#58882;" d="M960 128v-128H64v128h896z m0 448v-384l-320 192 320 192zM512 448v-128H64V448h448z m448 320v-128H64V768h896z"  horiz-adv-x="1024" />

    
    <glyph glyph-name="home" unicode="&#58883;" d="M896 320a128 128 0 0 0 128-128v-192a128 128 0 0 0-128-128h-192a128 128 0 0 0-128 128v192a128 128 0 0 0 128 128h192zM320 320a128 128 0 0 0 128-128v-192a128 128 0 0 0-128-128H128a128 128 0 0 0-128 128v192a128 128 0 0 0 128 128h192z m0 576a128 128 0 0 0 128-128v-192a128 128 0 0 0-128-128H128a128 128 0 0 0-128 128V768a128 128 0 0 0 128 128h192z m576 0a128 128 0 0 0 128-128v-192a128 128 0 0 0-128-128h-192a128 128 0 0 0-128 128V768a128 128 0 0 0 128 128h192z"  horiz-adv-x="1024" />

    
    <glyph glyph-name="report" unicode="&#58884;" d="M768 832a64 64 0 0 0 63.552-56.512L832 768v-800a96 96 0 0 1 64-90.56V-128H192a128 128 0 0 0-128 128V576h608a32 32 0 0 1 32 32V768a64 64 0 0 0 56.512 63.552L768 832z m256-576v-256a64 64 0 0 0-128 0v256h128z m-320-64H192v-64h512v64z m0 192H192v-64h512V384z m64 512l-9.6-0.32a128 128 0 0 1-118.016-117.632L640 768v-128H0V768a128 128 0 0 0 128 128h640z"  horiz-adv-x="1024" />

    
    <glyph glyph-name="safe" unicode="&#58885;" d="M96 720.704V301.44000000000005l0.512-14.72 0.96-15.168 1.6-15.616 2.368-16c1.856-10.752 4.288-21.76 7.36-33.024l5.12-16.96 6.4-17.152c38.144-95.232 132.736-200.128 359.36-288.576L512-128l11.328 4.224c241.792 89.984 341.12 198.4 380.352 296.448l6.4 17.216 5.12 16.96c0.768 2.816 1.536 5.568 2.176 8.32l3.712 16.576 2.752 16.128 1.088 8 1.6 15.616 0.96 15.168 0.448 14.72 0.064 419.328a64 64 0 0 1-45.184 61.184L549.632 884.48a128 128 0 0 1-75.264 0L141.184 781.888a64 64 0 0 1-45.184-61.184z m378.368-530.816l-207.36 189.248 55.04 45.888 110.272-83.776 19.072 19.584 25.856 25.28 25.216 23.744 19.2 17.472 20.992 18.368 22.4 18.944 11.584 9.6 24.192 19.2 12.48 9.6 25.472 18.688c30.144 21.504 61.568 41.408 92.8 57.472l20.992-24.32-16.96-15.296-22.592-21.568-21.632-21.76-16.192-16.896-17.28-18.816-18.24-20.608-18.88-22.272-19.328-23.872-9.728-12.48-19.52-26.112a957.824 957.824 0 0 1-97.92-165.312z"  horiz-adv-x="1024" />

    
    <glyph glyph-name="person" unicode="&#58886;" d="M832 896a192 192 0 0 0 192-192v-640a192 192 0 0 0-192-192H192a192 192 0 0 0-192 192V704a192 192 0 0 0 192 192h640z m-34.624-695.04a122.24 122.24 0 0 1-154.56 77.312L640 277.312a404.8 404.8 0 0 0-256 0l-2.816 0.96A122.24 122.24 0 0 1 224 192l-12.16-48.448A64 64 0 0 1 273.92 64h476.16a64 64 0 0 1 62.08 79.552L800 192a122.24 122.24 0 0 1-2.624 8.96zM512 704a160 160 0 1 1 0-320 160 160 0 0 1 0 320z"  horiz-adv-x="1024" />

    
    <glyph glyph-name="search" unicode="&#58887;" d="M481.408 896c230.528 0 417.408-189.312 417.408-422.784a424.32 424.32 0 0 0-103.872-279.04l212.48-212.48a64 64 0 0 0 5.312-84.48l-5.632-6.336a64 64 0 0 0-90.496 0l-219.968 219.968a411.52 411.52 0 0 0-215.232-60.48C250.88 50.36800000000005 64 239.67999999999995 64 473.216 64 706.688 250.88 896 481.408 896z m0-130.112c-159.616 0-288.96-131.008-288.96-292.672 0-161.664 129.344-292.736 288.96-292.736 159.552 0 288.96 131.072 288.96 292.736s-129.408 292.672-288.96 292.672z"  horiz-adv-x="1026" />

    
    <glyph glyph-name="open" unicode="&#58888;" d="M64 128v-128h896v128H64z m0 448v-384l320 192-320 192z m448-128v-128h448V448H512zM64 768v-128h896V768H64z"  horiz-adv-x="1024" />

    
    <glyph glyph-name="classification" unicode="&#58889;" d="M857.447621 221.90217099999995l145.976239-68.356489a31.942284 31.942284 0 0 0 0-57.879419L538.408086-121.98846200000003a63.884569 63.884569 0 0 0-54.174115 0L19.218197 95.66626299999996a31.942284 31.942284 0 0 0 0 57.879419l145.912354 68.356489 154.79231-72.445101-52.832538-24.851097L511.321029 10.252595000000042l244.29459 114.353378-52.960308 24.851097 154.79231 72.445101z m0 259.371348l145.976239-68.356488a31.942284 31.942284 0 0 0 0-57.87942L538.408086 137.38288599999998a63.884569 63.884569 0 0 0-54.174115 0L19.218197 355.03761099999997a31.942284 31.942284 0 0 0 0 57.87942l145.912354 68.356488 154.79231-72.508985L267.090323 383.97732099999996 511.321029 269.62394300000005 755.615619 383.97732099999996l-52.960308 24.787213 154.79231 72.4451zM538.408086 889.943104l465.015774-217.71861a31.942284 31.942284 0 0 0 0-57.879419L538.408086 396.754235a63.884569 63.884569 0 0 0-54.174115 0L19.218197 614.40896a31.942284 31.942284 0 0 0 0 57.879419L484.233971 889.943104a63.884569 63.884569 0 0 0 54.174115 0z"  horiz-adv-x="1024" />

    
    <glyph glyph-name="manage" unicode="&#58890;" d="M280.448 192a64 64 0 0 0 57.216-35.392l87.168-174.272a32 32 0 0 0-28.608-46.336H64a64 64 0 0 0-64 64v128a64 64 0 0 0 64 64h216.448z m551.168 320a64 64 0 0 0 55.552-32.192l128.128-224a64 64 0 0 0 0-63.616l-128.128-224a64 64 0 0 0-55.552-32.192H576.384a64 64 0 0 0-55.552 32.192l-128.128 224a64 64 0 0 0 0 63.616l128.128 224A64 64 0 0 0 576.384 512h255.232zM704 352a128 128 0 1 1 0-256 128 128 0 0 1 0 256zM396.224 512a32 32 0 0 0 28.608-46.336L337.664 291.39200000000005a64 64 0 0 0-57.216-35.392H64a64 64 0 0 0-64 64V448a64 64 0 0 0 64 64h332.224zM832 832a64 64 0 0 0 64-64v-128a64 64 0 0 0-64-64H64a64 64 0 0 0-64 64V768a64 64 0 0 0 64 64h768z"  horiz-adv-x="1024" />

    
    <glyph glyph-name="message" unicode="&#58891;" d="M512.191993-126.07750999999996a98.364434 98.364434 0 0 0-73.853323 30.974877 69.501481 69.501481 0 0 0-12.351552 15.103453 36.606673 36.606673 0 0 0 8.447694 50.622165 37.118654 37.118654 0 0 0 18.815318 4.607833h115.259822c19.711285 0 35.646708-16.191413 35.646707-36.158689a37.886627 37.886627 0 0 0-5.183812-19.071309 100.668351 100.668351 0 0 0-86.780854-47.99826v1.91993z m309.620776 574.827163v-245.303108c0-9.599652 3.647868-18.815318 10.367624-25.599072l83.516973-84.220947a37.24665 37.24665 0 0 0 0-51.262142 34.75074 34.75074 0 0 0-25.215086-11.199594H134.541683a36.542675 36.542675 0 0 0-36.286685 36.798666 39.102583 39.102583 0 0 0 10.367624 25.66307l85.500901 84.156949a36.478678 36.478678 0 0 1 10.367624 25.66307V448.749653a372.210507 372.210507 0 0 0 64.765652 213.752251 275.893999 275.893999 0 0 0 140.538906 110.459996 37.438643 37.438643 0 0 1 25.279084 34.814738v9.215666a76.925211 76.925211 0 0 0 21.759211 56.381956c14.591471 14.975457 34.558747 23.103163 55.357993 22.527184 20.927241 0.703974 41.150508-7.679722 55.677982-23.039165 14.207485-14.975457 22.0792-35.006731 22.015202-55.869975v-9.215666c0-15.743429 9.91964-29.758921 24.639106-34.814738 59.517842-19.007311 110.90798-57.981898 145.722718-110.523993 42.046476-62.90972 63.613694-137.65901 61.565768-213.752252z"  horiz-adv-x="1024" />

    
    <glyph glyph-name="sortup" unicode="&#58892;" d="M512 896L256 554.666667v-85.333334h512V554.666667z"  horiz-adv-x="1024" />

    
    <glyph glyph-name="up" unicode="&#58893;" d="M934.656 226.56L572.416 589.397333a85.333333 85.333333 0 0 1-120.832 0L89.344 226.56a42.752 42.752 0 0 1 60.330667-60.416L512 528.810667l362.325333-362.666667a42.666667 42.666667 0 1 1 60.330667 60.416z"  horiz-adv-x="1024" />

    
    <glyph glyph-name="arrow-down" unicode="&#58894;" d="M512 170.66666699999996L170.666667 514.048V597.333333h682.666666v-83.285333z"  horiz-adv-x="1024" />

    
    <glyph glyph-name="arrow-right" unicode="&#58895;" d="M768 384l-343.381333-341.333333H341.333333V725.333333h83.285334z"  horiz-adv-x="1024" />

    
    <glyph glyph-name="arrow-more" unicode="&#58896;" d="M768 128l-456.533333 1.365333-55.466667 55.466667L711.082667 640l55.466666-55.466667z"  horiz-adv-x="1024" />

    
    <glyph glyph-name="down" unicode="&#58897;" d="M934.656 541.44L572.416 178.602667a85.333333 85.333333 0 0 0-120.832 0L89.344 541.44a42.752 42.752 0 0 0 60.330667 60.416L512 239.18933300000003l362.325333 362.666667a42.666667 42.666667 0 1 0 60.330667-60.416z"  horiz-adv-x="1024" />

    
    <glyph glyph-name="sortdown" unicode="&#58898;" d="M512-128L256 213.33333300000004V298.66666699999996h512v-85.333334z"  horiz-adv-x="1024" />

    
    <glyph glyph-name="right" unicode="&#58899;" d="M354.56-38.656l362.837333 362.24a85.333333 85.333333 0 0 1 0 120.832L354.56 806.656a42.752 42.752 0 0 1-60.416-60.330667L656.810667 384l-362.666667-362.325333a42.666667 42.666667 0 1 1 60.416-60.330667z"  horiz-adv-x="1024" />

    
    <glyph glyph-name="jump" unicode="&#58900;" d="M0 384.192c0 17.344 14.08 31.36 31.36 31.36h893.888l-245.44 234.88a30.72 30.72 0 0 0-1.024 43.392l1.024 0.96a33.6 33.6 0 0 0 46.4 0l276.608-264.512a64 64 0 0 0 7.232-84.352l-6.208-7.168-277.632-265.6a33.6 33.6 0 0 0-46.4 0 30.72 30.72 0 0 0-1.024 43.52l246.848 236.096H31.424A31.36 31.36 0 0 0 0 384.256z"  horiz-adv-x="1024" />

    
    <glyph glyph-name="save" unicode="&#58901;" d="M642.496 896A128 128 0 0 0 742.4 848l189.568-236.928A128 128 0 0 0 960 531.072V0a128 128 0 0 0-128-128h-64v256a64 64 0 0 1-64 64H320a64 64 0 0 1-64-64v-256H192a128 128 0 0 0-128 128V768a128 128 0 0 0 128 128h450.496zM640 64v-192H384v192h256zM320 768H256a64 64 0 0 1-63.552-56.512L192 704v-256a64 64 0 0 1 56.512-63.552L256 384h64a64 64 0 0 1 63.552 56.512L384 448V704a64 64 0 0 1-56.512 63.552L320 768z"  horiz-adv-x="1024" />

    
    <glyph glyph-name="download" unicode="&#58902;" d="M960 192a64 64 0 0 0 64-64v-192a64 64 0 0 0-64-64H64a64 64 0 0 0-64 64v192a64 64 0 0 0 128 0v-128h768v128a64 64 0 0 0 64 64zM539.648 896a64 64 0 0 0 63.552-56.512L603.648 832v-396.032h149.632a32 32 0 0 0 25.92-50.688l-3.776-4.352L512 128 248.576 380.928a32 32 0 0 0 16.384 54.528l5.76 0.512h149.632V832A64 64 0 0 0 476.8 895.552L484.352 896h55.296z"  horiz-adv-x="1024" />

    
    <glyph glyph-name="more" unicode="&#58903;" d="M160 512a64 64 0 0 0 64-64v-64a64 64 0 0 0-64-64h-64a64 64 0 0 0-64 64V448a64 64 0 0 0 64 64h64z m384 0a64 64 0 0 0 64-64v-64a64 64 0 0 0-64-64h-64a64 64 0 0 0-64 64V448a64 64 0 0 0 64 64h64z m384 0a64 64 0 0 0 64-64v-64a64 64 0 0 0-64-64h-64a64 64 0 0 0-64 64V448a64 64 0 0 0 64 64h64z"  horiz-adv-x="1024" />

    
    <glyph glyph-name="export" unicode="&#58904;" d="M562.005333 896a85.333333 85.333333 0 0 0 60.330667-25.002667l291.328-291.328a85.333333 85.333333 0 0 0 25.002667-60.330666V426.666667a42.666667 42.666667 0 1 0-85.333334 0V512.085333L597.333333 512a42.666667 42.666667 0 0 0-41.984 34.986667L554.666667 554.666667V810.752L256 810.666667a85.333333 85.333333 0 0 1-84.736-75.349334L170.666667 725.333333v-682.666666a85.333333 85.333333 0 0 1 75.349333-84.736L256-42.66666699999996h512a85.333333 85.333333 0 0 1 84.736 75.349334L853.333333 42.66666699999996v42.666666a42.666667 42.666667 0 1 0 85.333334 0v-42.666666a170.666667 170.666667 0 0 0-170.666667-170.666667H256a170.666667 170.666667 0 0 0-170.666667 170.666667V725.333333a170.666667 170.666667 0 0 0 170.666667 170.666667h306.005333zM785.066667 384l8.192-0.768a42.666667 42.666667 0 0 0 14.848-5.802667l6.314666-4.949333 91.989334-86.272 5.717333-7.082667a42.666667 42.666667 0 0 0-1.536-48.469333l-5.12-5.802667-91.050667-85.333333a42.666667 42.666667 0 0 0-21.162666-10.752L785.237333 128l-4.693333 0.597333a17.066667 17.066667 0 0 0-11.946667 11.946667L768 145.06666700000005V213.33333300000004H346.453333a42.666667 42.666667 0 0 0-7.68 84.650667L346.453333 298.66666699999996H768v68.266666a17.066667 17.066667 0 0 0 12.544 16.469334L785.066667 384zM640 732.672v-135.253333h135.253333L640 732.672z"  horiz-adv-x="1024" />

    
    <glyph glyph-name="back" unicode="&#58905;" d="M681.6 758.656a32 32 0 0 0 48.96-40.832l-3.712-4.48L365.44 352l361.408-361.344a32 32 0 0 0 3.712-40.832l-3.712-4.48a32 32 0 0 0-40.832-3.648l-4.48 3.648-384 384a32 32 0 0 0-3.648 40.832l3.712 4.48 384 384z"  horiz-adv-x="1024" />

    
    <glyph glyph-name="card" unicode="&#58906;" d="M213.333333 170.66666699999996a85.333333 85.333333 0 0 0 85.333334-85.333334v-85.333333a85.333333 85.333333 0 0 0-85.333334-85.333333h-85.333333a85.333333 85.333333 0 0 0-85.333333 85.333333v85.333333a85.333333 85.333333 0 0 0 85.333333 85.333334h85.333333z m341.333334 0a85.333333 85.333333 0 0 0 85.333333-85.333334v-85.333333a85.333333 85.333333 0 0 0-85.333333-85.333333h-85.333334a85.333333 85.333333 0 0 0-85.333333 85.333333v85.333333a85.333333 85.333333 0 0 0 85.333333 85.333334h85.333334z m341.333333 0a85.333333 85.333333 0 0 0 85.333333-85.333334v-85.333333a85.333333 85.333333 0 0 0-85.333333-85.333333h-85.333333a85.333333 85.333333 0 0 0-85.333334 85.333333v85.333333a85.333333 85.333333 0 0 0 85.333334 85.333334h85.333333z m-682.666667 341.333333a85.333333 85.333333 0 0 0 85.333334-85.333333v-85.333334a85.333333 85.333333 0 0 0-85.333334-85.333333h-85.333333a85.333333 85.333333 0 0 0-85.333333 85.333333v85.333334a85.333333 85.333333 0 0 0 85.333333 85.333333h85.333333z m341.333334 0a85.333333 85.333333 0 0 0 85.333333-85.333333v-85.333334a85.333333 85.333333 0 0 0-85.333333-85.333333h-85.333334a85.333333 85.333333 0 0 0-85.333333 85.333333v85.333334a85.333333 85.333333 0 0 0 85.333333 85.333333h85.333334z m341.333333 0a85.333333 85.333333 0 0 0 85.333333-85.333333v-85.333334a85.333333 85.333333 0 0 0-85.333333-85.333333h-85.333333a85.333333 85.333333 0 0 0-85.333334 85.333333v85.333334a85.333333 85.333333 0 0 0 85.333334 85.333333h85.333333z m-682.666667 341.333333a85.333333 85.333333 0 0 0 85.333334-85.333333v-85.333333a85.333333 85.333333 0 0 0-85.333334-85.333334h-85.333333a85.333333 85.333333 0 0 0-85.333333 85.333334v85.333333a85.333333 85.333333 0 0 0 85.333333 85.333333h85.333333z m341.333334 0a85.333333 85.333333 0 0 0 85.333333-85.333333v-85.333333a85.333333 85.333333 0 0 0-85.333333-85.333334h-85.333334a85.333333 85.333333 0 0 0-85.333333 85.333334v85.333333a85.333333 85.333333 0 0 0 85.333333 85.333333h85.333334z m341.333333 0a85.333333 85.333333 0 0 0 85.333333-85.333333v-85.333333a85.333333 85.333333 0 0 0-85.333333-85.333334h-85.333333a85.333333 85.333333 0 0 0-85.333334 85.333334v85.333333a85.333333 85.333333 0 0 0 85.333334 85.333333h85.333333z"  horiz-adv-x="1024" />

    
    <glyph glyph-name="close" unicode="&#58907;" d="M128.192 768a32 32 0 0 0 40.832 3.712L173.44 768l338.752-338.688L850.944 768a32 32 0 1 0 45.248-45.248L557.44 384l338.752-338.816a32 32 0 0 0 3.712-40.832l-3.712-4.416a32 32 0 0 0-40.768-3.712l-4.48 3.712-338.752 338.816L173.44 0a32 32 0 1 0-45.248 45.248l338.688 338.816-338.688 338.688a32 32 0 0 0-3.712 40.832L128.192 768z"  horiz-adv-x="1024" />

    
    <glyph glyph-name="list" unicode="&#58908;" d="M0 384c0-43.776 32.682667-79.872 75.349333-84.736L85.333333 298.66666699999996a85.077333 85.077333 0 0 1 84.736 75.349333L170.666667 384a85.077333 85.077333 0 0 1-75.349334 84.736L85.333333 469.333333a85.077333 85.077333 0 0 1-84.736-75.349333L0 384z m0 341.333333c0-43.776 32.682667-79.872 75.349333-84.736L85.333333 640a85.077333 85.077333 0 0 1 84.736 75.349333L170.666667 725.333333a85.077333 85.077333 0 0 1-75.349334 84.736L85.333333 810.666667a85.077333 85.077333 0 0 1-84.736-75.349334L0 725.333333z m0-682.666666c0-43.776 32.682667-79.872 75.349333-84.736L85.333333-42.66666699999996a85.077333 85.077333 0 0 1 84.736 75.349334L170.666667 42.66666699999996a85.077333 85.077333 0 0 1-75.349334 84.736L85.333333 128a85.077333 85.077333 0 0 1-84.736-75.349333L0 42.66666699999996z m256 0c0-47.104 38.058667-85.333333 85.162667-85.333334h597.674666a84.992 84.992 0 0 1 84.565334 75.349334L1024 42.66666699999996c0 47.104-38.058667 85.333333-85.162667 85.333333H341.162667a84.992 84.992 0 0 1-84.565334-75.349333L256 42.66666699999996z m0 341.333333c0-47.104 38.058667-85.333333 85.162667-85.333333h597.674666a84.992 84.992 0 0 1 84.565334 75.349333L1024 384c0 47.104-38.058667 85.333333-85.162667 85.333333H341.162667a84.992 84.992 0 0 1-84.565334-75.349333L256 384z m0 341.333333c0-47.104 38.058667-85.333333 85.162667-85.333333h597.674666a84.992 84.992 0 0 1 84.565334 75.349333L1024 725.333333c0 47.104-38.058667 85.333333-85.162667 85.333334H341.162667a84.992 84.992 0 0 1-84.565334-75.349334L256 725.333333z"  horiz-adv-x="1024" />

    
    <glyph glyph-name="trash" unicode="&#58909;" d="M834.10048 554.688v-512A170.688 170.688 0 0 0 663.41248-128H364.78848A170.688 170.688 0 0 0 194.10048 42.68799999999999v512h640zM471.41248 469.312H386.10048v-426.624h85.312V469.312z m170.688 0H556.78848v-426.624H642.10048V469.312zM644.59648 896c36.736 0 69.312-23.488 80.96-58.368l37.44-112.32h220.416a42.688 42.688 0 1 0 0-85.312H44.78848a42.688 42.688 0 1 0 0 85.312H265.14048L302.64448 837.632A85.312 85.312 0 0 0 383.60448 896h260.992z"  horiz-adv-x="1027" />

    
    <glyph glyph-name="clear" unicode="&#58910;" d="M85.333333 810.666667a42.666667 42.666667 0 0 0 54.442667 4.949333l5.973333-4.949333 366.165334-366.250667L878.336 810.666667a42.666667 42.666667 0 0 0 60.330667-60.330667L572.245333 384 938.666667 17.663999999999987a42.666667 42.666667 0 0 0 4.949333-54.442667L938.666667-42.66666699999996a42.666667 42.666667 0 0 0-54.442667-4.949333l-5.973333 4.949333L512 323.75466700000004 145.664-42.66666699999996A42.666667 42.666667 0 0 0 85.333333 17.663999999999987l366.250667 366.421333L85.333333 750.336a42.666667 42.666667 0 0 0-4.949333 54.442667L85.333333 810.666667z"  horiz-adv-x="1024" />

    
    <glyph glyph-name="date" unicode="&#58911;" d="M170.666667 810.666667v-85.333334a85.333333 85.333333 0 0 1 170.069333-9.984L341.333333 725.333333V810.666667h341.333334v-85.333334a85.333333 85.333333 0 0 1 75.349333-84.736L768 640a85.333333 85.333333 0 0 1 84.736 75.349333L853.333333 725.333333V810.666667h85.333334a85.333333 85.333333 0 0 0 85.333333-85.333334v-768a85.333333 85.333333 0 0 0-85.333333-85.333333H85.333333a85.333333 85.333333 0 0 0-85.333333 85.333333V725.333333a85.333333 85.333333 0 0 0 85.333333 85.333334h85.333334z m768-341.333334H85.333333v-512h853.333334V469.333333zM768 298.66666699999996v-170.666667H597.333333V298.66666699999996h170.666667zM256 896a42.666667 42.666667 0 0 0 42.666667-42.666667V725.333333a42.666667 42.666667 0 0 0-85.333334 0V853.333333A42.666667 42.666667 0 0 0 256 896z m512 0a42.666667 42.666667 0 0 0 42.666667-42.666667V725.333333a42.666667 42.666667 0 0 0-85.333334 0V853.333333A42.666667 42.666667 0 0 0 768 896z"  horiz-adv-x="1024" />

    
    <glyph glyph-name="system" unicode="&#58912;" d="M598.144 896c27.968-138.88 119.488-184.512 200.96-196.288l17.92-2.112c11.84-1.088 23.296-1.472 34.176-1.408l15.808 0.384 21.76 1.536 18.816 2.24 19.456 3.2 14.464 3.264c18.816-35.328 39.04-69.952 60.544-103.68L1024 569.6c-125.312-111.168-107.2-217.92-69.056-288.704l7.68-13.248 7.872-12.288 8-11.328 7.936-10.24 7.616-9.088 13.568-14.784 15.04-14.272-83.136-135.936c-163.328 44.928-251.008-21.76-296.32-87.808l-8.768-13.632-7.68-13.312-6.528-12.928-5.504-12.16-6.592-16.64-4.608-13.76-2.112-7.296-2.56-10.176H429.184c-53.248 184.704-176.192 208.896-258.496 201.984l-13.696-1.472-12.8-1.92-11.712-2.24-15.36-3.584-12.352-3.52-14.912-5.248L0 198.39999999999998c113.6 103.872 115.648 194.24 88.32 259.392l-6.528 14.08-7.296 13.184c-3.84 6.4-7.808 12.416-11.968 18.112l-8.32 10.944-8.384 9.984-8.32 8.96-7.936 7.936-10.816 9.92-8.96 7.488-9.728 7.552 88.384 141.568c179.84-48.256 267.392 31.808 308.48 102.016l7.296 13.44 3.328 6.528 5.76 12.608a307.2 307.2 0 0 1 2.496 6.08l6.144 16.64 3.072 9.536 4.48 16.96L430.464 896h167.68zM519.68 561.5360000000001a177.536 177.536 0 0 1-19.456-354.304l10.688-0.64a180.8 180.8 0 0 1 184.128 177.344 177.536 177.536 0 0 1-175.36 177.6z"  horiz-adv-x="1024" />

    
    <glyph glyph-name="upload" unicode="&#58913;" d="M981.333333 213.33333300000004a42.666667 42.666667 0 0 0 41.984-34.986666L1024 170.66666699999996v-170.752a128 128 0 0 0-115.712-127.488L896-128h-768a128 128 0 0 0-127.402667 115.626667L0 0v170.666667a42.666667 42.666667 0 0 0 84.650667 7.68l0.682666-7.68v-170.666667a42.666667 42.666667 0 0 1 34.986667-41.984l7.68-0.682667h768a42.666667 42.666667 0 0 1 41.984 34.986667l0.682667 7.68V170.66666699999996a42.666667 42.666667 0 0 0 42.666666 42.666666zM482.816 864.768a42.666667 42.666667 0 0 0 54.613333 3.157333l5.717334-5.12 128-136.533333a42.666667 42.666667 0 0 0 10.752-21.162667L682.666667 697.088V691.2a22.784 22.784 0 0 0-17.578667-22.186667l-5.12-0.597333H554.666667V170.66666699999996a42.666667 42.666667 0 0 0-34.986667-41.984L512 128a42.666667 42.666667 0 0 0-41.984 34.986667L469.333333 170.66666699999996V668.5013329999999H364.117333a22.784 22.784 0 0 0-22.186666 17.493334L341.333333 691.2v5.888a42.666667 42.666667 0 0 0 6.570667 22.784l4.949333 6.4L482.816 864.768z"  horiz-adv-x="1024" />

    
    <glyph glyph-name="upload-cloud" unicode="&#58914;" d="M530.40128 409.984l4.48-3.776 128.704-129.28a32 32 0 0 0-40.896-48.832l-4.48 3.712L544.22528 306.17600000000004V-32a32 32 0 1 0-64 0V304.06399999999996l-68.608-71.808a32 32 0 0 0-40.704-4.608l-4.48 3.584a32 32 0 0 0-4.672 40.768l3.648 4.48 123.712 129.28a32 32 0 0 0 41.28 4.224zM512.22528 832c155.328 0 284.8-110.72 313.92-257.472A224 224 0 0 0 800.22528 128H704.22528v64h96a160 160 0 0 1 28.928 317.44l-10.368 1.536-46.4 5.312-9.024 45.824a256.128 256.128 0 0 1-499.328 12.608l-2.88-12.608-9.024-45.824-46.464-5.312a160 160 0 0 1 8.064-318.656L224.22528 192H320.22528v-64H224.22528a224 224 0 0 0-25.856 446.528A320 320 0 0 0 512.22528 832z"  horiz-adv-x="1024" />

    
    <glyph glyph-name="search-big" unicode="&#58915;" d="M426.621871 896a426.621871 426.621871 0 0 0 331.39987-695.223002l0.341298-0.170648 252.474823-252.389499a44.539323 44.539323 0 0 0-63.054713-63.054713L695.649623 137.295664A429.864198 429.864198 0 0 0 426.621871 42.756257000000005 426.621871 426.621871 0 1 0 426.621871 896z m0-85.324374a341.297497 341.297497 0 1 1 0-682.594994 341.297497 341.297497 0 0 1 0 682.594994z"  horiz-adv-x="1024" />

    
    <glyph glyph-name="time" unicode="&#58916;" d="M512 896a512 512 0 1 0 0-1024A512 512 0 0 0 512 896z m0-85.333333a426.666667 426.666667 0 1 1 0-853.333334A426.666667 426.666667 0 0 1 512 810.666667z m-42.666667-128A42.666667 42.666667 0 0 0 512 640v-252.928a42.666667 42.666667 0 0 1 19.029333-35.498667L713.386667 229.80266700000004a42.666667 42.666667 0 0 0-47.274667-70.997334L445.696 305.83466699999997A42.666667 42.666667 0 0 0 426.666667 341.33333300000004V640a42.666667 42.666667 0 0 0 42.666666 42.666667z"  horiz-adv-x="1024" />

    
    <glyph glyph-name="add" unicode="&#58917;" d="M512 896a42.666667 42.666667 0 0 0 42.666667-42.666667v-426.666666h426.666666a42.666667 42.666667 0 1 0 0-85.333334h-426.666666v-426.666666a42.666667 42.666667 0 1 0-85.333334 0v426.666666h-426.666666a42.666667 42.666667 0 0 0 0 85.333334h426.666666v426.666666A42.666667 42.666667 0 0 0 512 896z"  horiz-adv-x="1024" />

    
    <glyph glyph-name="refresh" unicode="&#58919;" d="M886.656 731.52l4.672-4.416c8.128-8.576 14.848-16.192 20.16-22.784a512 512 0 0 0-383.488-832l-16-0.32H333.248a32 32 0 0 0-22.592 54.656l210.688 210.688a32 32 0 0 0 54.656-22.592v-109.44a384.128 384.128 0 0 1 248.576 601.856 303.488 303.488 0 0 1-20.736 25.344 70.144 70.144 0 0 0-1.152 92.416 59.584 59.584 0 0 0 83.968 6.592zM690.752 896a32 32 0 0 0 22.592-54.656L502.656 630.656A32 32 0 0 0 448 653.248v109.44a384.128 384.128 0 0 1-227.2-629.056c6.016-6.976 13.888-15.04 23.744-24.128 25.792-23.872 29.952-63.232 9.728-91.968a58.88 58.88 0 0 0-82.048-14.208l-5.184 4.096a470.016 470.016 0 0 0-42.24 41.472A512 512 0 0 0 512 896h178.752z"  horiz-adv-x="1024" />

    
    <glyph glyph-name="download-small" unicode="&#58920;" d="M981.333333 213.33333300000004a42.666667 42.666667 0 0 0 41.984-34.986666L1024 170.66666699999996v-170.752a128 128 0 0 0-115.712-127.488L896-128h-768a128 128 0 0 0-127.402667 115.626667L0 0v170.666667a42.666667 42.666667 0 0 0 84.650667 7.68l0.682666-7.68v-170.666667a42.666667 42.666667 0 0 1 34.986667-41.984l7.68-0.682667h768a42.666667 42.666667 0 0 1 41.984 34.986667l0.682667 7.68V170.66666699999996a42.666667 42.666667 0 0 0 42.666666 42.666666zM512 896a42.666667 42.666667 0 0 0 42.666667-42.666667V298.66666699999996h105.216c12.629333 0 22.784-10.24 22.784-22.784v-5.888a42.666667 42.666667 0 0 0-11.52-29.184l-128-136.533334a42.666667 42.666667 0 0 0-54.272-6.656l-7.082667 5.717334-128.853333 137.472A42.666667 42.666667 0 0 0 341.333333 269.99466700000005v5.973333C341.333333 288.42666699999995 351.573333 298.66666699999996 364.117333 298.66666699999996H469.333333V853.333333A42.666667 42.666667 0 0 0 512 896z"  horiz-adv-x="1024" />

    
    <glyph glyph-name="success" unicode="&#58921;" d="M512 896c282.624 0 512-229.376 512-512 0-282.709333-229.376-512-512-512S0 101.29066699999998 0 384c0 282.624 229.376 512 512 512z m304.896-304.896a42.666667 42.666667 0 0 1-60.330667 0L448 282.45333300000004 331.434667 399.104l-5.973334 4.949333a42.666667 42.666667 0 0 1-54.357333-4.949333l-30.208-30.208a42.666667 42.666667 0 0 1 0-60.330667L402.773333 146.77333299999998l5.973334-5.290666a64 64 0 0 1 84.48 5.290666l353.962666 353.792a42.666667 42.666667 0 0 1 0 60.330667z"  horiz-adv-x="1024" />

    
    <glyph glyph-name="clear-all" unicode="&#58922;" d="M512 896a512 512 0 1 0 0-1024A512 512 0 0 0 512 896zM331.008 625.322667a42.666667 42.666667 0 0 1-65.28-54.357334l4.949333-5.973333L451.584 384l-180.906667-180.992a42.666667 42.666667 0 0 1 54.357334-65.28l5.973333 4.949333L512 323.58399999999995l180.992-180.906667a42.666667 42.666667 0 0 1 65.28 54.357334l-4.949333 5.973333L572.416 384l180.906667 180.992a42.666667 42.666667 0 0 1-54.357334 65.28l-5.973333-4.949333L512 444.416l-180.992 180.906667z"  horiz-adv-x="1024" />

    
    <glyph glyph-name="warning" unicode="&#58923;" d="M512 896a512 512 0 1 0 0-1024A512 512 0 0 0 512 896z m0-704a64 64 0 1 1 0-128 64 64 0 0 1 0 128z m0.341333 512a85.333333 85.333333 0 0 1-85.504-95.061333l35.242667-308.394667a50.176 50.176 0 0 1 99.84 0l35.242667 308.394667a85.333333 85.333333 0 0 1-84.821334 95.061333z"  horiz-adv-x="1024" />

    
    <glyph glyph-name="fail" unicode="&#58924;" d="M512 896a512 512 0 1 0 0-1024A512 512 0 0 0 512 896zM361.130667 625.322667a42.666667 42.666667 0 0 1-60.330667 0l-30.122667-30.122667a42.666667 42.666667 0 0 1 0-60.330667L421.461333 384 270.677333 233.13066700000002a42.666667 42.666667 0 0 1-4.949333-54.442667l4.949333-5.888 30.122667-30.122667a42.666667 42.666667 0 0 1 60.330667 0L512 293.46133299999997l150.869333-150.784a42.666667 42.666667 0 0 1 54.442667-4.949333l5.888 4.949333 30.122667 30.122667a42.666667 42.666667 0 0 1 0 60.330667L602.538667 384l150.784 150.869333a42.666667 42.666667 0 0 1 4.949333 54.442667l-4.949333 5.888-30.122667 30.122667a42.666667 42.666667 0 0 1-60.330667 0L512 474.538667z"  horiz-adv-x="1024" />

    
    <glyph glyph-name="explain" unicode="&#58925;" d="M512 896a512 512 0 1 0 0-1024A512 512 0 0 0 512 896z m0-85.333333a426.666667 426.666667 0 1 1 0-853.333334A426.666667 426.666667 0 0 1 512 810.666667z m1.28-278.613334l16.469333-0.170666c70.741333-4.181333 81.749333-44.373333 68.437334-101.973334l-5.632-20.992-7.253334-22.272-8.618666-23.381333-9.642667-24.234667-31.146667-76.458666-14.848-39.082667c-26.368-73.813333-9.898667-84.821333 16.725334-71.253333l9.813333 5.802666 10.325333 7.338667 10.581334 8.704 10.410666 9.642667 10.069334 10.154666 9.301333 10.24 11.946667 15.018667 5.973333 9.045333-4.096-14.336-6.741333-19.626666-8.277334-20.309334-10.837333-22.698666-9.130667-16.384c-36.096-60.416-99.754667-119.552-201.386666-71.168-46.421333 22.186667-35.157333 94.293333-8.021334 169.813333l10.922667 28.416 5.802667 14.08 12.202666 27.904 12.458667 26.709333 34.133333 68.522667c27.306667 53.162667 5.888 57.002667-27.050666 36.693333l-12.117334-8.192-6.229333-4.693333-12.8-10.752-6.485333-5.888-15.957334-16.042667-15.018666-17.578666-5.546667-7.338667 3.754667 11.946667 4.949333 13.397333 7.168 16.725333c22.186667 48.128 69.717333 121.088 155.306667 124.672z m82.261333 192.853334a80.64 80.64 0 1 0 0-161.28 80.64 80.64 0 0 0 0 161.28z"  horiz-adv-x="1024" />

    
    <glyph glyph-name="part" unicode="&#58926;" d="M512 896a512 512 0 1 0 0-1024A512 512 0 0 0 512 896z m277.333333-448h-554.666666a42.666667 42.666667 0 0 1-42.666667-42.666667v-42.666666a42.666667 42.666667 0 0 1 42.666667-42.666667h554.666666a42.666667 42.666667 0 0 1 42.666667 42.666667v42.666666a42.666667 42.666667 0 0 1-42.666667 42.666667z"  horiz-adv-x="1024" />

    
    <glyph glyph-name="question" unicode="&#58927;" d="M512 896a512 512 0 1 0 0-1024A512 512 0 0 0 512 896z m0-85.333333a426.666667 426.666667 0 1 1 0-853.333334A426.666667 426.666667 0 0 1 512 810.666667z m-8.533333-592.554667c24.149333 0 45.397333-7.509333 62.037333-24.149333h1.536c16.64-18.090667 24.234667-37.802667 24.234667-61.952a83.285333 83.285333 0 0 0-24.234667-60.586667v-1.450667a97.962667 97.962667 0 0 0-63.573333-24.149333c-22.698667 0-43.946667 9.045333-60.586667 24.149333a86.272 86.272 0 0 0-27.306667 62.037334c0 24.149333 9.216 43.861333 25.770667 61.952h1.536a83.541333 83.541333 0 0 0 60.586667 24.149333z m13.568 506.624c40.96 0 75.690667-7.509333 105.984-22.613333 31.829333-15.189333 54.613333-37.802667 72.704-68.096 18.176-28.672 27.306667-60.416 27.306666-93.610667 0-16.64-2.986667-34.816-9.045333-52.906667a212.565333 212.565333 0 0 0-27.306667-51.456c-7.594667-10.666667-24.234667-28.842667-50.005333-51.456-22.698667-21.248-36.352-36.352-42.410667-45.397333l-1.536-1.536a74.24 74.24 0 0 1-12.117333-28.757333v-1.450667a180.565333 180.565333 0 0 1-7.594667-57.514667c0-2.986667-1.536-5.973333-4.522666-9.045333a16.384 16.384 0 0 0-10.666667-4.522667H445.781333a13.824 13.824 0 0 0-10.666666 4.522667c-4.522667 2.986667-4.522667 5.973333-4.522667 10.581333V269.653333c0 39.338667 6.058667 74.154667 21.162667 107.434667 15.104 31.829333 37.888 62.037333 69.632 89.258667h-1.450667c28.842667 24.234667 45.397333 42.410667 52.992 51.456a70.912 70.912 0 0 1 6.058667 25.685333 50.432 50.432 0 0 1-16.554667 33.28c-13.653333 10.496-30.378667 15.104-51.541333 15.104-21.333333 0-39.424-5.973333-51.541334-18.090667a59.989333 59.989333 0 0 1-21.162666-46.933333 13.653333 13.653333 0 0 0-4.522667-10.581333 13.482667 13.482667 0 0 0-10.581333-4.522667H314.026667a13.738667 13.738667 0 0 0-10.581334 4.522667 13.482667 13.482667 0 0 0-4.522666 10.581333c0 57.429333 21.248 105.813333 60.586666 142.08h1.450667c37.888 37.802667 90.965333 55.893333 156.074667 55.893333z"  horiz-adv-x="1024" />

    
    <glyph glyph-name="examples" unicode="&#58928;" d="M832 896a192 192 0 0 0 192-192v-640a192 192 0 0 0-192-192H192a192 192 0 0 0-192 192V704a192 192 0 0 0 192 192h640z m-94.976-139.008a1066.88 1066.88 0 0 0-62.976-140.544H553.472l43.776 21.504a1340.16 1340.16 0 0 1-66.816 115.2l-46.08-21.504c23.04-33.792 45.312-72.192 66.816-115.2H437.504v-52.224h173.568v-112.896h-149.76v-52.224h149.76v-115.968H419.84v-52.992h191.232v-181.248h55.296v181.248h195.072v52.992h-195.072V399.104h152.064v52.224h-152.064V564.2239999999999h175.104v52.224h-112.896a753.92 753.92 0 0 1 61.44 122.112l-52.992 18.432z m-407.808-2.304h-52.992v-149.76h-96v-52.992h92.16c-23.808-96-62.976-180.48-116.736-254.208l28.416-46.08c37.632 57.6 68.352 121.344 92.16 191.232v-392.448h52.992v391.68c5.76-7.488 11.584-15.488 17.728-24.064l19.072-27.584 10.048-15.168 21.504-33.024 29.952 44.544a1817.92 1817.92 0 0 1-98.304 116.736v48.384h76.8v52.992h-76.8v149.76z"  horiz-adv-x="1024" />

    
    <glyph glyph-name="sensitive" unicode="&#58931;" d="M577.194667 810.666667A255.061333 255.061333 0 0 1 512 640c0-65.578667 24.661333-125.44 65.237333-170.666667H426.666667v-170.666666h170.666666v150.528a255.829333 255.829333 0 0 1 85.333334-50.645334V298.66666699999996h170.666666v99.925333a255.829333 255.829333 0 0 1 85.333334 50.645333V42.66666699999996a85.333333 85.333333 0 0 0-85.333334-85.333334H170.666667a85.333333 85.333333 0 0 0-85.333334 85.333334V725.333333a85.333333 85.333333 0 0 0 85.333334 85.333334h406.528zM341.333333 213.33333300000004H170.666667v-170.666666h170.666666v170.666666z m256 0h-170.666666v-170.666666h170.666666v170.666666z m256 0h-170.666666v-170.666666h170.666666v170.666666zM341.333333 469.333333H170.666667v-170.666666h170.666666v170.666666z m426.666667 384a213.333333 213.333333 0 1 0 0-426.666666 213.333333 213.333333 0 0 0 0 426.666666z m0-298.666666a42.666667 42.666667 0 1 1 0-85.333334 42.666667 42.666667 0 0 1 0 85.333334z m0 256a42.666667 42.666667 0 0 1-42.368-37.674667L725.333333 768v-128a42.666667 42.666667 0 0 1 85.034667-4.992L810.666667 640V768a42.666667 42.666667 0 0 1-42.666667 42.666667z"  horiz-adv-x="1024" />

    
    <glyph glyph-name="column" unicode="&#58932;" d="M853.333333 810.666667a85.333333 85.333333 0 0 0 85.333334-85.333334v-682.666666a85.333333 85.333333 0 0 0-85.333334-85.333334H170.666667a85.333333 85.333333 0 0 0-85.333334 85.333334V725.333333a85.333333 85.333333 0 0 0 85.333334 85.333334h682.666666zM341.333333 725.333333H170.666667v-682.666666h170.666666V725.333333z m256 0h-170.666666v-682.666666h170.666666V725.333333z m256 0h-170.666666v-682.666666h170.666666V725.333333z"  horiz-adv-x="1024" />

    
    <glyph glyph-name="sensitive-column" unicode="&#58933;" d="M577.194667 810.666667a255.829333 255.829333 0 0 1-50.602667-85.333334H426.666667v-682.666666h170.666666v406.528a255.829333 255.829333 0 0 1 85.333334-50.645334V42.66666699999996h170.666666v355.925333a255.829333 255.829333 0 0 1 85.333334 50.645333V42.66666699999996a85.333333 85.333333 0 0 0-85.333334-85.333334H170.666667a85.333333 85.333333 0 0 0-85.333334 85.333334V725.333333a85.333333 85.333333 0 0 0 85.333334 85.333334h406.528zM341.333333 725.333333H170.666667v-682.666666h170.666666V725.333333z m426.666667 128a213.333333 213.333333 0 1 0 0-426.666666 213.333333 213.333333 0 0 0 0 426.666666z m0-298.666666a42.666667 42.666667 0 1 1 0-85.333334 42.666667 42.666667 0 0 1 0 85.333334z m0 256a42.666667 42.666667 0 0 1-42.368-37.674667L725.333333 768v-128a42.666667 42.666667 0 0 1 85.034667-4.992L810.666667 640V768a42.666667 42.666667 0 0 1-42.666667 42.666667z"  horiz-adv-x="1024" />

    
    <glyph glyph-name="add-column" unicode="&#58934;" d="M577.194667 810.666667a255.829333 255.829333 0 0 1-50.602667-85.333334H426.666667v-682.666666h170.666666v406.528a255.829333 255.829333 0 0 1 85.333334-50.645334V42.66666699999996h170.666666v355.925333a255.829333 255.829333 0 0 1 85.333334 50.645333V42.66666699999996a85.333333 85.333333 0 0 0-85.333334-85.333334H170.666667a85.333333 85.333333 0 0 0-85.333334 85.333334V725.333333a85.333333 85.333333 0 0 0 85.333334 85.333334h406.528zM341.333333 725.333333H170.666667v-682.666666h170.666666V725.333333z m426.666667 128a213.333333 213.333333 0 1 0 0-426.666666 213.333333 213.333333 0 0 0 0 426.666666z m42.666667-85.333333h-85.333334v-85.333333h-85.333333v-85.333334h85.333333v-85.333333h85.333334V597.333333h85.333333V682.666667h-85.333333V768z"  horiz-adv-x="1024" />

    
    <glyph glyph-name="add-table" unicode="&#58935;" d="M577.194667 810.666667A255.061333 255.061333 0 0 1 512 640c0-65.578667 24.661333-125.44 65.237333-170.666667H426.666667v-170.666666h170.666666v150.528a255.829333 255.829333 0 0 1 85.333334-50.645334V298.66666699999996h170.666666v99.925333a255.829333 255.829333 0 0 1 85.333334 50.645333V42.66666699999996a85.333333 85.333333 0 0 0-85.333334-85.333334H170.666667a85.333333 85.333333 0 0 0-85.333334 85.333334V725.333333a85.333333 85.333333 0 0 0 85.333334 85.333334h406.528zM341.333333 213.33333300000004H170.666667v-170.666666h170.666666v170.666666z m256 0h-170.666666v-170.666666h170.666666v170.666666z m256 0h-170.666666v-170.666666h170.666666v170.666666zM341.333333 469.333333H170.666667v-170.666666h170.666666v170.666666z m426.666667 384a213.333333 213.333333 0 1 0 0-426.666666 213.333333 213.333333 0 0 0 0 426.666666z m42.666667-85.333333h-85.333334v-85.333333h-85.333333v-85.333334h85.333333v-85.333333h85.333334V597.333333h85.333333V682.666667h-85.333333V768z"  horiz-adv-x="1024" />

    
    <glyph glyph-name="table" unicode="&#58936;" d="M853.333333 810.666667a85.333333 85.333333 0 0 0 85.333334-85.333334v-682.666666a85.333333 85.333333 0 0 0-85.333334-85.333334H170.666667a85.333333 85.333333 0 0 0-85.333334 85.333334V725.333333a85.333333 85.333333 0 0 0 85.333334 85.333334h682.666666zM341.333333 213.33333300000004H170.666667v-170.666666h170.666666v170.666666z m256 0h-170.666666v-170.666666h170.666666v170.666666z m256 0h-170.666666v-170.666666h170.666666v170.666666zM341.333333 469.333333H170.666667v-170.666666h170.666666v170.666666z m256 0h-170.666666v-170.666666h170.666666v170.666666z m256 0h-170.666666v-170.666666h170.666666v170.666666z"  horiz-adv-x="1024" />

    


  </font>
</defs>
</svg>
