{
  "accessors": [
    {
      "bufferView": 2,
      "componentType": 5126,
      "count": 6682,
      "max": [
        9.939457893371582,
        4.597531795501709,
        0.35729199647903442
      ],
      "min": [
        -10.091349601745605,
        -4.5823369026184082,
        -2.5408511161804199
      ],
      "type": "VEC3"
    },
    {
      "bufferView": 2,
      "byteOffset": 80184,
      "componentType": 5126,
      "count": 6682,
      "max": [
        0.97077673673629761,
        1,
        1
      ],
      "min": [
        -1,
        -1,
        -1
      ],
      "type": "VEC3"
    },
    {
      "bufferView": 3,
      "componentType": 5126,
      "count": 6682,
      "max": [
        0.99993914365768433,
        1,
        1,
        1
      ],
      "min": [
        -0.99998891353607178,
        -1,
        -0.99999988079071045,
        1
      ],
      "type": "VEC4"
    },
    {
      "bufferView": 1,
      "componentType": 5126,
      "count": 6682,
      "max": [
        0.95291900634765625,
        0.98493099212646484
      ],
      "min": [
        0.0019529999699443579,
        0.0019529999699443579
      ],
      "type": "VEC2"
    },
    {
      "bufferView": 0,
      "componentType": 5125,
      "count": 33444,
      "max": [
        6681
      ],
      "min": [
        0
      ],
      "type": "SCALAR"
    },
    {
      "bufferView": 2,
      "byteOffset": 160368,
      "componentType": 5126,
      "count": 3313,
      "max": [
        8.5131502151489258,
        4.2758259773254395,
        2.4736309051513672
      ],
      "min": [
        -6.7919530868530273,
        -4.2606310844421387,
        -2.503593921661377
      ],
      "type": "VEC3"
    },
    {
      "bufferView": 2,
      "byteOffset": 200124,
      "componentType": 5126,
      "count": 3313,
      "max": [
        0.9979974627494812,
        0.99999749660491943,
        0.99968135356903076
      ],
      "min": [
        -0.99694061279296875,
        -0.99999749660491943,
        -0.99972778558731079
      ],
      "type": "VEC3"
    },
    {
      "bufferView": 3,
      "byteOffset": 106912,
      "componentType": 5126,
      "count": 3313,
      "max": [
        0.75981986522674561,
        0.99994206428527832,
        0.99999934434890747,
        1
      ],
      "min": [
        -0.96479934453964233,
        -0.99989688396453857,
        -0.99991482496261597,
        -1
      ],
      "type": "VEC4"
    },
    {
      "bufferView": 1,
      "byteOffset": 53456,
      "componentType": 5126,
      "count": 3313,
      "max": [
        0.9857029914855957,
        0.97952401638031006
      ],
      "min": [
        0.085487000644207001,
        0.032159999012947083
      ],
      "type": "VEC2"
    },
    {
      "bufferView": 0,
      "byteOffset": 133776,
      "componentType": 5125,
      "count": 16722,
      "max": [
        3312
      ],
      "min": [
        0
      ],
      "type": "SCALAR"
    },
    {
      "bufferView": 2,
      "byteOffset": 239880,
      "componentType": 5126,
      "count": 9333,
      "max": [
        10.101249694824219,
        4.6376161575317383,
        2.4736309051513672
      ],
      "min": [
        -10.101249694824219,
        -4.6224198341369629,
        -2.5080940723419189
      ],
      "type": "VEC3"
    },
    {
      "bufferView": 2,
      "byteOffset": 351876,
      "componentType": 5126,
      "count": 9333,
      "max": [
        0.99999433755874634,
        1,
        0.99998486042022705
      ],
      "min": [
        -0.99548947811126709,
        -1,
        -1
      ],
      "type": "VEC3"
    },
    {
      "bufferView": 3,
      "byteOffset": 159920,
      "componentType": 5126,
      "count": 9333,
      "max": [
        1,
        1,
        0.99999845027923584,
        1
      ],
      "min": [
        -1,
        -0.9998706579208374,
        -0.99999815225601196,
        -1
      ],
      "type": "VEC4"
    },
    {
      "bufferView": 1,
      "byteOffset": 79960,
      "componentType": 5126,
      "count": 9333,
      "max": [
        0.972819983959198,
        0.95402497053146362
      ],
      "min": [
        0.0019529999699443579,
        0.0019529999699443579
      ],
      "type": "VEC2"
    },
    {
      "bufferView": 0,
      "byteOffset": 200664,
      "componentType": 5125,
      "count": 45210,
      "max": [
        9332
      ],
      "min": [
        0
      ],
      "type": "SCALAR"
    },
    {
      "bufferView": 2,
      "byteOffset": 463872,
      "componentType": 5126,
      "count": 5901,
      "max": [
        10.101249694824219,
        4.3378419876098633,
        2.4736309051513672
      ],
      "min": [
        -9.4622058868408203,
        -4.3226480484008789,
        -2.4500799179077148
      ],
      "type": "VEC3"
    },
    {
      "bufferView": 2,
      "byteOffset": 534684,
      "componentType": 5126,
      "count": 5901,
      "max": [
        0.99979573488235474,
        1,
        0.99996733665466309
      ],
      "min": [
        -0.9994921088218689,
        -1,
        -0.99985021352767944
      ],
      "type": "VEC3"
    },
    {
      "bufferView": 3,
      "byteOffset": 309248,
      "componentType": 5126,
      "count": 5901,
      "max": [
        0.98395848274230957,
        0.99988603591918945,
        0.99977129697799683,
        1
      ],
      "min": [
        -0.99985647201538086,
        -0.9999992847442627,
        -0.9998476505279541,
        -1
      ],
      "type": "VEC4"
    },
    {
      "bufferView": 1,
      "byteOffset": 154624,
      "componentType": 5126,
      "count": 5901,
      "max": [
        0.99806302785873413,
        0.98593097925186157
      ],
      "min": [
        0.0019529999699443579,
        0.0019529999699443579
      ],
      "type": "VEC2"
    },
    {
      "bufferView": 0,
      "byteOffset": 381504,
      "componentType": 5125,
      "count": 29370,
      "max": [
        5900
      ],
      "min": [
        0
      ],
      "type": "SCALAR"
    },
    {
      "bufferView": 2,
      "byteOffset": 605496,
      "componentType": 5126,
      "count": 3696,
      "max": [
        5.2838320732116699,
        5.4652070999145508,
        -0.12996099889278412
      ],
      "min": [
        -6.6333198547363281,
        -5.4652070999145508,
        -2.8159658908843994
      ],
      "type": "VEC3"
    },
    {
      "bufferView": 2,
      "byteOffset": 649848,
      "componentType": 5126,
      "count": 3696,
      "max": [
        1,
        0.99941664934158325,
        0.99934077262878418
      ],
      "min": [
        -1,
        -0.99941664934158325,
        -0.99430209398269653
      ],
      "type": "VEC3"
    },
    {
      "bufferView": 3,
      "byteOffset": 403664,
      "componentType": 5126,
      "count": 3696,
      "max": [
        0.99456554651260376,
        0.99877583980560303,
        0.99104708433151245,
        1
      ],
      "min": [
        -0.99480229616165161,
        -0.99877583980560303,
        -0.99863725900650024,
        -1
      ],
      "type": "VEC4"
    },
    {
      "bufferView": 1,
      "byteOffset": 201832,
      "componentType": 5126,
      "count": 3696,
      "max": [
        0.99338799715042114,
        0.53649497032165527
      ],
      "min": [
        0.089883998036384583,
        0.0019529999699443579
      ],
      "type": "VEC2"
    },
    {
      "bufferView": 0,
      "byteOffset": 498984,
      "componentType": 5125,
      "count": 12000,
      "max": [
        3695
      ],
      "min": [
        0
      ],
      "type": "SCALAR"
    },
    {
      "bufferView": 2,
      "byteOffset": 694200,
      "componentType": 5126,
      "count": 1346,
      "max": [
        7.2495951652526855,
        3.9792098999023438,
        2.8159658908843994
      ],
      "min": [
        -4.3771648406982422,
        -3.964015007019043,
        0.41466701030731201
      ],
      "type": "VEC3"
    },
    {
      "bufferView": 2,
      "byteOffset": 710352,
      "componentType": 5126,
      "count": 1346,
      "max": [
        0.9933086633682251,
        0.99766862392425537,
        1
      ],
      "min": [
        -0.99937450885772705,
        -0.99768012762069702,
        -0.99941736459732056
      ],
      "type": "VEC3"
    },
    {
      "bufferView": 3,
      "byteOffset": 462800,
      "componentType": 5126,
      "count": 1346,
      "max": [
        0.9999997615814209,
        0.99915671348571777,
        0.9996834397315979,
        1
      ],
      "min": [
        -0.99935311079025269,
        -0.96469968557357788,
        -0.9964330792427063,
        1
      ],
      "type": "VEC4"
    },
    {
      "bufferView": 1,
      "byteOffset": 231400,
      "componentType": 5126,
      "count": 1346,
      "max": [
        0.7727850079536438,
        0.96475797891616821
      ],
      "min": [
        0.098677001893520355,
        0.0019529999699443579
      ],
      "type": "VEC2"
    },
    {
      "bufferView": 0,
      "byteOffset": 546984,
      "componentType": 5125,
      "count": 6060,
      "max": [
        1345
      ],
      "min": [
        0
      ],
      "type": "SCALAR"
    }
  ],
  "asset": {
    "extras": {
      "author": "Igor.Fridman (https://sketchfab.com/Igor.Friedman)",
      "license": "CC-BY-4.0 (http://creativecommons.org/licenses/by/4.0/)",
      "source": "https://sketchfab.com/3d-models/hover-car-703eba5d2b60405dbeaf53552331ec24",
      "title": "Hover car"
    },
    "generator": "Sketchfab-5.17.0",
    "version": "2.0"
  },
  "bufferViews": [
    {
      "buffer": 0,
      "byteLength": 571224,
      "byteOffset": 0,
      "name": "floatBufferViews",
      "target": 34963
    },
    {
      "buffer": 0,
      "byteLength": 242168,
      "byteOffset": 571224,
      "byteStride": 8,
      "name": "floatBufferViews",
      "target": 34962
    },
    {
      "buffer": 0,
      "byteLength": 726504,
      "byteOffset": 813392,
      "byteStride": 12,
      "name": "floatBufferViews",
      "target": 34962
    },
    {
      "buffer": 0,
      "byteLength": 484336,
      "byteOffset": 1539896,
      "byteStride": 16,
      "name": "floatBufferViews",
      "target": 34962
    }
  ],
  "buffers": [
    {
      "byteLength": 2024232,
      "uri": "scene.bin"
    }
  ],
  "images": [
    {
      "uri": "textures/lambert3SG_baseColor.jpeg"
    },
    {
      "uri": "textures/lambert3SG_normal.png"
    },
    {
      "uri": "textures/lambert3SG_emissive.jpeg"
    },
    {
      "uri": "textures/lambert3SG_metallicRoughness.png"
    },
    {
      "uri": "textures/lambert6SG_baseColor.jpeg"
    },
    {
      "uri": "textures/lambert6SG_emissive.jpeg"
    },
    {
      "uri": "textures/lambert6SG_metallicRoughness.png"
    },
    {
      "uri": "textures/lambert5SG_baseColor.jpeg"
    },
    {
      "uri": "textures/lambert5SG_normal.png"
    },
    {
      "uri": "textures/lambert5SG_emissive.jpeg"
    },
    {
      "uri": "textures/lambert5SG_metallicRoughness.png"
    },
    {
      "uri": "textures/lambert4SG_baseColor.jpeg"
    },
    {
      "uri": "textures/lambert4SG_normal.png"
    },
    {
      "uri": "textures/lambert4SG_emissive.jpeg"
    },
    {
      "uri": "textures/lambert4SG_metallicRoughness.png"
    }
  ],
  "materials": [
    {
      "doubleSided": true,
      "emissiveFactor": [
        1,
        1,
        1
      ],
      "emissiveTexture": {
        "index": 2,
        "texCoord": 0
      },
      "name": "lambert3SG",
      "normalTexture": {
        "index": 1,
        "scale": 1,
        "texCoord": 0
      },
      "pbrMetallicRoughness": {
        "baseColorFactor": [
          1,
          1,
          1,
          1
        ],
        "baseColorTexture": {
          "index": 0,
          "texCoord": 0
        },
        "metallicFactor": 1,
        "metallicRoughnessTexture": {
          "index": 3,
          "texCoord": 0
        },
        "roughnessFactor": 1
      }
    },
    {
      "doubleSided": true,
      "emissiveFactor": [
        1,
        1,
        1
      ],
      "emissiveTexture": {
        "index": 13,
        "texCoord": 0
      },
      "name": "lambert4SG",
      "normalTexture": {
        "index": 12,
        "scale": 1,
        "texCoord": 0
      },
      "pbrMetallicRoughness": {
        "baseColorFactor": [
          1,
          1,
          1,
          1
        ],
        "baseColorTexture": {
          "index": 11,
          "texCoord": 0
        },
        "metallicFactor": 1,
        "metallicRoughnessTexture": {
          "index": 14,
          "texCoord": 0
        },
        "roughnessFactor": 1
      }
    },
    {
      "doubleSided": true,
      "emissiveFactor": [
        1,
        1,
        1
      ],
      "emissiveTexture": {
        "index": 9,
        "texCoord": 0
      },
      "name": "lambert5SG",
      "normalTexture": {
        "index": 8,
        "scale": 1,
        "texCoord": 0
      },
      "pbrMetallicRoughness": {
        "baseColorFactor": [
          1,
          1,
          1,
          1
        ],
        "baseColorTexture": {
          "index": 7,
          "texCoord": 0
        },
        "metallicFactor": 1,
        "metallicRoughnessTexture": {
          "index": 10,
          "texCoord": 0
        },
        "roughnessFactor": 1
      }
    },
    {
      "doubleSided": true,
      "emissiveFactor": [
        1,
        1,
        1
      ],
      "emissiveTexture": {
        "index": 5,
        "texCoord": 0
      },
      "name": "lambert6SG",
      "pbrMetallicRoughness": {
        "baseColorFactor": [
          1,
          1,
          1,
          1
        ],
        "baseColorTexture": {
          "index": 4,
          "texCoord": 0
        },
        "metallicFactor": 1,
        "metallicRoughnessTexture": {
          "index": 6,
          "texCoord": 0
        },
        "roughnessFactor": 1
      }
    }
  ],
  "meshes": [
    {
      "primitives": [
        {
          "attributes": {
            "NORMAL": 1,
            "POSITION": 0,
            "TANGENT": 2,
            "TEXCOORD_0": 3
          },
          "indices": 4,
          "material": 0,
          "mode": 4
        }
      ]
    },
    {
      "primitives": [
        {
          "attributes": {
            "NORMAL": 6,
            "POSITION": 5,
            "TANGENT": 7,
            "TEXCOORD_0": 8
          },
          "indices": 9,
          "material": 1,
          "mode": 4
        }
      ]
    },
    {
      "primitives": [
        {
          "attributes": {
            "NORMAL": 11,
            "POSITION": 10,
            "TANGENT": 12,
            "TEXCOORD_0": 13
          },
          "indices": 14,
          "material": 1,
          "mode": 4
        }
      ]
    },
    {
      "primitives": [
        {
          "attributes": {
            "NORMAL": 16,
            "POSITION": 15,
            "TANGENT": 17,
            "TEXCOORD_0": 18
          },
          "indices": 19,
          "material": 1,
          "mode": 4
        }
      ]
    },
    {
      "primitives": [
        {
          "attributes": {
            "NORMAL": 21,
            "POSITION": 20,
            "TANGENT": 22,
            "TEXCOORD_0": 23
          },
          "indices": 24,
          "material": 2,
          "mode": 4
        }
      ]
    },
    {
      "primitives": [
        {
          "attributes": {
            "NORMAL": 26,
            "POSITION": 25,
            "TANGENT": 27,
            "TEXCOORD_0": 28
          },
          "indices": 29,
          "material": 3,
          "mode": 4
        }
      ]
    }
  ],
  "nodes": [
    {
      "children": [
        1
      ],
      "name": "RootNode (gltf orientation matrix)",
      "rotation": [
        -0.70710678118654746,
        -0,
        -0,
        0.70710678118654757
      ]
    },
    {
      "children": [
        2
      ],
      "name": "RootNode (model correction matrix)"
    },
    {
      "children": [
        3,
        4,
        5,
        6,
        7,
        8,
        9
      ],
      "name": "test.obj.cleaner.materialmerger.gles"
    },
    {
      "name": ""
    },
    {
      "mesh": 0,
      "name": ""
    },
    {
      "mesh": 1,
      "name": ""
    },
    {
      "mesh": 2,
      "name": ""
    },
    {
      "mesh": 3,
      "name": ""
    },
    {
      "mesh": 4,
      "name": ""
    },
    {
      "mesh": 5,
      "name": ""
    }
  ],
  "samplers": [
    {
      "magFilter": 9729,
      "minFilter": 9987,
      "wrapS": 10497,
      "wrapT": 10497
    }
  ],
  "scene": 0,
  "scenes": [
    {
      "name": "OSG_Scene",
      "nodes": [
        0
      ]
    }
  ],
  "textures": [
    {
      "sampler": 0,
      "source": 0
    },
    {
      "sampler": 0,
      "source": 1
    },
    {
      "sampler": 0,
      "source": 2
    },
    {
      "sampler": 0,
      "source": 3
    },
    {
      "sampler": 0,
      "source": 4
    },
    {
      "sampler": 0,
      "source": 5
    },
    {
      "sampler": 0,
      "source": 6
    },
    {
      "sampler": 0,
      "source": 7
    },
    {
      "sampler": 0,
      "source": 8
    },
    {
      "sampler": 0,
      "source": 9
    },
    {
      "sampler": 0,
      "source": 10
    },
    {
      "sampler": 0,
      "source": 11
    },
    {
      "sampler": 0,
      "source": 12
    },
    {
      "sampler": 0,
      "source": 13
    },
    {
      "sampler": 0,
      "source": 14
    }
  ]
}

